PathFileType	4	(X/Y/Z)	C:\Users\WrightLab\Desktop\Jo\P3_19.trc
DataRate	CameraRate	NumFrames	NumMarkers	Units	OrigDataRate	OrigDataStartFrame	OrigNumFrames
100.00	100.00	       27	19	mm	100.00	1	       731
Frame#	Time	Headset_Front			Headset_Back			Headset_Left			Headset_Right			Left_Shoulder			Right_Shoulder			Sternum			C7			Left Elbow			Right Elbow			Left Wrist			Right Wrist			Left ASIS			Right ASIS			S2			Left Knee			Right Knee			Left Ankle			Right Ankle			
		X1	Y1	Z1	X2	Y2	Z2	X3	Y3	Z3	X4	Y4	Z4	X5	Y5	Z5	X6	Y6	Z6	X7	Y7	Z7	X8	Y8	Z8	X9	Y9	Z9	X10	Y10	Z10	X11	Y11	Z11	X12	Y12	Z12	X13	Y13	Z13	X14	Y14	Z14	X15	Y15	Z15	X16	Y16	Z16	X17	Y17	Z17	X18	Y18	Z18	X19	Y19	Z19	

1	0.000																									-121.12215	951.58905	-1682.20496				-168.15173	771.88837	-1588.68958	-639.97217	771.33905	-1646.17505	-283.83710	808.50037	-1634.76184										-536.98694	395.85907	-1663.34363							
2	0.010																									-120.88099	951.71570	-1681.73694				-168.26193	770.95306	-1587.52759	-641.02979	771.76465	-1648.31506	-284.06088	807.72571	-1635.94128										-540.24518	398.15610	-1653.93542							
3	0.020																									-119.63715	951.03839	-1679.74683				-168.23332	770.67664	-1587.31335	-642.05176	770.71075	-1652.75232	-284.23096	807.07074	-1636.82593										-541.91962	399.45169	-1650.39331							
4	0.030																									-119.47312	951.23145	-1679.00256				-167.51453	768.76166	-1589.67505	-644.52533	771.66382	-1652.77490	-285.10788	806.48541	-1634.21094										-544.30090	401.10443	-1642.61865							
5	0.040																									-118.86311	950.64484	-1676.60962				-167.92221	768.45050	-1587.57239	-646.52673	772.78711	-1650.88635	-285.82648	805.88025	-1631.95044										-547.43945	402.33145	-1636.86438							
6	0.050																									-118.54633	949.94495	-1673.69373				-167.76332	766.17957	-1587.63562	-647.25861	772.00134	-1654.04736	-285.91479	805.59082	-1632.41687										-550.92841	402.81784	-1634.88391							
7	0.060																									-118.46841	948.63861	-1669.35620				-167.74757	765.90399	-1587.50574	-648.34698	772.40112	-1655.72351	-286.64819	806.54584	-1629.19482										-554.33160	404.29608	-1630.22205							
8	0.070																									-118.46538	949.01324	-1667.86890				-167.81534	764.66626	-1586.68701	-649.77197	771.49310	-1657.68616	-286.83698	805.60492	-1629.14404										-556.15363	405.88077	-1625.42712							
9	0.080																									-119.89970	950.39691	-1668.72986				-167.82532	764.01239	-1586.67151	-652.38654	772.22009	-1658.68335	-288.49213	806.49707	-1623.31348										-558.44073	408.90134	-1618.13171							
10	0.090																									-120.32015	950.48004	-1666.21851				-167.94096	762.92371	-1586.17249	-654.57739	772.55927	-1656.71582	-289.15054	806.28741	-1622.12927										-561.64313	411.09799	-1611.97485							
11	0.100																									-120.40386	950.86310	-1664.08154				-168.40016	762.51886	-1584.38464	-655.83142	772.66473	-1659.06860	-289.26205	805.99725	-1622.72754										-565.84229	412.38794	-1608.44556							
12	0.110																									-121.02714	951.39307	-1662.02368				-169.04135	763.17999	-1582.13855	-657.12878	772.63196	-1661.58435	-289.44067	805.58057	-1623.69226										-568.51404	413.91110	-1608.29602							
13	0.120																									-121.54053	951.55914	-1659.25305				-170.16048	763.58264	-1578.07007	-659.82697	772.43146	-1661.79089	-291.14819	805.06287	-1619.81921										-570.75409	416.76236	-1602.25671							
14	0.130																									-122.09777	952.51849	-1657.76379				-170.20393	763.38049	-1578.31812	-662.57983	773.59100	-1659.19604	-292.18750	805.16797	-1619.02966										-573.82733	418.97565	-1596.34253							
15	0.140																									-122.48278	953.05176	-1655.60376				-170.28546	763.14642	-1578.80151	-663.62653	772.40552	-1663.65979	-293.33194	804.59491	-1616.97424										-577.52362	419.76996	-1598.78796							
16	0.150																									-123.08723	953.27722	-1652.88184				-170.38956	762.87219	-1579.42175	-664.87994	772.39417	-1665.96851	-294.43863	804.01392	-1616.61292										-580.90344	422.36328	-1592.83118							
17	0.160																									-123.49262	953.82538	-1650.74915				-171.25911	762.56134	-1576.66223	-667.76935	773.66382	-1660.81091	-295.34695	803.32971	-1616.03674										-583.01074	424.36118	-1589.58801							
18	0.170																									-124.99129	954.57721	-1648.43091				-172.01695	762.03711	-1574.54126	-669.90991	772.16699	-1664.73987	-296.04526	801.93988	-1617.30054										-586.25500	425.37759	-1586.71460							
19	0.180																									-125.86882	955.10779	-1646.16589				-172.96265	762.64026	-1572.38062	-671.39038	771.71722	-1667.96130	-298.04541	801.73724	-1613.69141										-590.33856	425.87750	-1586.90662							
20	0.190																									-126.70365	955.17908	-1643.26721				-173.95663	762.41205	-1570.17578	-672.82153	772.28864	-1665.81470	-299.38464	801.88513	-1610.23315										-592.37683	426.99829	-1583.97009							
21	0.200																									-127.27534	955.56451	-1640.78650				-175.16833	761.86481	-1568.33057	-675.45697	773.70190	-1659.56860	-299.61172	801.41077	-1611.45459										-594.93665	429.45395	-1577.41003							
22	0.210																									-127.97723	955.23065	-1637.38257				-176.16821	760.83887	-1569.13354	-677.80493	770.72626	-1664.21667	-301.44525	802.98779	-1604.68921										-598.58411	429.61664	-1576.28333							
23	0.220																									-129.61430	954.26086	-1632.36060				-178.51733	760.83264	-1566.43970	-679.92279	768.13953	-1669.11804	-302.41977	802.28027	-1601.99805										-601.55945	427.90097	-1579.60364							
24	0.230																									-130.36591	954.52429	-1628.57410				-180.60808	760.60162	-1565.45068	-682.46069	768.88202	-1661.08850	-303.82233	801.69232	-1598.81873										-604.57965	430.29236	-1570.95752							
25	0.240																									-131.47197	954.55664	-1625.48779				-181.42834	759.62408	-1566.60669	-684.00073	769.11475	-1659.36987	-305.72394	801.79608	-1593.73242										-605.66290	429.40359	-1571.71472							
26	0.250																									-134.03397	955.63885	-1624.68213				-183.66585	760.33313	-1560.39001	-685.20575	767.31689	-1664.33838	-306.66660	800.15637	-1591.76233										-608.63495	430.34082	-1569.98950							
27	0.260																									-135.86325	955.75598	-1621.85413				-184.83069	759.95459	-1558.42725	-687.64453	766.91248	-1666.47681	-308.35379	800.93866	-1587.50317										-612.70941	430.44669	-1569.12512							
